<svg width="30" height="30" viewBox="0 0 30 30" fill="none" xmlns="http://www.w3.org/2000/svg">
<path d="M10.3539 2.10841C12.641 1.86449 14.9332 2.10841 17.2325 2.10841C18.0692 2.10841 19.4145 2.02489 20.1911 2.31669C21.1163 2.66426 23.4165 2.27466 23.9618 3.2887C24.7055 4.67181 24.7374 6.48065 24.8018 7.9713C24.8585 9.28482 25.1945 10.6454 24.8391 11.9673C24.6195 12.7842 24.4658 13.764 24.4658 14.5979C24.4658 15.203 24.1298 15.8098 24.1298 16.4108C24.1298 17.0118 23.7938 17.6186 23.7938 18.2237C23.7938 18.8578 23.7194 19.5886 23.3738 20.1599C22.5142 21.5809 20.9325 22.9976 19.6312 24.156C19.1366 24.5962 18.8224 25.1023 18.2498 25.4674C17.4863 25.9543 16.8135 26.964 15.8232 26.964C14.5912 26.964 13.3592 26.964 12.1272 26.964C11.747 26.964 10.9306 27.0836 10.6246 26.8868C10.0914 26.5441 9.59865 25.6613 9.26193 25.1666C8.90941 24.6485 8.35487 24.0362 7.90861 23.562C7.14807 22.7537 6.84769 21.6404 6.11663 20.8851C5.68933 20.4436 5.62345 19.4698 5.51931 18.9102C5.35656 18.0359 5.4141 17.1303 5.18331 16.2719C4.53379 13.8561 5.7918 11.3921 6.14463 9.05902C6.36634 7.593 7.06116 6.06586 7.16196 4.60785C7.19953 4.0644 7.59678 3.59495 7.66595 3.08041C7.75769 2.39793 9.06205 2.65307 9.68193 2.52498"
stroke="white" stroke-linecap="round" stroke-linejoin="round"/>

<path d="M10 4C10 5.27099 10 6.54807 10 7.81975C10 8.87045 10 9.96794 10 11"
stroke="white" stroke-linecap="round" stroke-linejoin="round"/>

<path d="M13 4C13 6.34378 13 8.65563 13 11"
stroke="white" stroke-linecap="round" stroke-linejoin="round"/>

<path d="M17 4C16.8107 5.77816 16.8583 7.80908 16.3418 9.39372C16.2473 9.68357 15.8452 10.7859 16.0646 11"
stroke="white" stroke-linecap="round" stroke-linejoin="round"/>

<path d="M19 12C20.3121 9.46352 20.7653 6.43367 22 4"
stroke="white" stroke-linecap="round" stroke-linejoin="round"/>

</svg>
